<svg xmlns="http://www.w3.org/2000/svg" fill="none" viewBox="0 0 1000 300">
  <style>
    .text-color {
        fill: #000000;
    }
    @media (prefers-color-scheme: dark) {
        .text-color {
            fill: #eee;
        }
    }
  </style>
  <defs/>
  <path fill="#fff" d="M821 65a24.3 24.3 0 01-6.3-15.5 24 24 0 01-6.4 15.5c-3 2.7-6.7 4.4-10.7 4.6 17 2.7 15.4 17.3 17 29.2 1.3-11.3.1-26.5 17-29.2-3.9-.3-7.6-2-10.5-4.6zM858.6 42.6a14.1 14.1 0 01-3.6-9c-.1 3.3-1.4 6.5-3.7 9a10 10 0 01-6.2 2.6c8 1.8 9 4.5 9.9 11.4.8-6.7 2.3-8.6 10-11.4a10 10 0 01-6.4-2.6z"/>
  <path fill="#A974A9" d="M837.5 63.4a4.7 4.7 0 100-9.5 4.7 4.7 0 000 9.5z"/>
  <path fill="#D539A9" d="M776.7 69.7a3.2 3.2 0 100-6.3 3.2 3.2 0 000 6.3z"/>
  <path fill="#54396D" d="M795.7 44.4a3.2 3.2 0 100-6.3 3.2 3.2 0 000 6.3zM878.6 81.5a3.6 3.6 0 100-7.1 3.6 3.6 0 000 7zM889.3 74.6a3.6 3.6 0 100-7.1 3.6 3.6 0 000 7zM891.3 29.7a3.6 3.6 0 100-7 3.6 3.6 0 000 7z"/>
  <path fill="#D539A9" d="M804 101.6a3.6 3.6 0 100-7.1 3.6 3.6 0 000 7z"/>
  <path fill="#54396D" d="M789.3 115.3a3.6 3.6 0 100-7.1 3.6 3.6 0 000 7zM836.4 93.7a3.6 3.6 0 100-7.1 3.6 3.6 0 000 7zM926.3 36a3.6 3.6 0 100-7 3.6 3.6 0 000 7zM979.2 21.1a3.6 3.6 0 100-7.1 3.6 3.6 0 000 7.1zM823.3 86a3.6 3.6 0 100-7.2 3.6 3.6 0 000 7.1z"/>
  <path fill="#D539A9" d="M877.4 52a3.6 3.6 0 100-7.1 3.6 3.6 0 000 7z"/>
  <path fill="#54A9BA" d="M773.2 101a3.2 3.2 0 100-6.3 3.2 3.2 0 000 6.3zM773.7 109a1.8 1.8 0 100-3.6 1.8 1.8 0 000 3.7zM850.2 78a1.8 1.8 0 100-3.7 1.8 1.8 0 000 3.7zM788 80.5a3.2 3.2 0 100-6.3 3.2 3.2 0 000 6.3z"/>
  <path fill="#54396D" d="M753.2 91.7a3.2 3.2 0 100-6.3 3.2 3.2 0 000 6.3z"/>
  <path fill="#54A9BA" d="M803 119.5a3.2 3.2 0 100-6.3 3.2 3.2 0 000 6.3z"/>
  <path fill="#fff" d="M776.2 71.7c-.9-1-1.5-2.3-1.9-3.6-.7-1.7-1.7-1.7-2.5 0-.4 1.4-1 2.7-2 3.8-1 .9-2.3 1.6-3.6 2.2a1 1 0 00-.5 1.5l.5.4a7.1 7.1 0 015.7 5c.5 1.3 1.6 1.3 2.2 0 1-2.4 1.9-3.7 6-5.3a1 1 0 000-2c-1.5-.4-2.8-1-3.9-2zM762.6 105.8c-.7-.6-.8-1.5-1.2-2.5-.5-1-1-.7-1.3 0-.3 1-.8 1.8-1.4 2.6-.7.6-1.4 1-2.2 1.4a.6.6 0 00-.4.6.6.6 0 00.4.5 4.4 4.4 0 013.6 3.4c.3.8.8.8 1.1 0 .7-1.6 1.1-2.5 3.8-3.5a.6.6 0 000-1.2c-.9-.3-1.7-.7-2.4-1.3zM832.2 96c-.7-.7-.8-1.5-1.3-2.6-.5-1-1-.6-1.3 0a8 8 0 01-1.4 2.7c-.6.5-1.4 1-2.2 1.3a.6.6 0 000 1.2 4.4 4.4 0 013.7 3.4c.3.7.8.7 1 0 .7-1.7 1.1-2.5 3.8-3.6a.6.6 0 00.4-.6.6.6 0 00-.4-.6 7 7 0 01-2.3-1.2zM789.5 94.9c-.6-.7-1-1.4-1.2-2.3-.5-1-1.1-1-1.5 0a7 7 0 01-1.3 2.3c-.7.5-1.4 1-2.2 1.3a.6.6 0 00-.4.6.6.6 0 00.4.6 4.4 4.4 0 013.5 3c.4.9 1 .9 1.4 0 .5-1.4 1-2.1 3.6-3.2a.6.6 0 00.4-.6.6.6 0 00-.4-.6 7 7 0 01-2.3-1.1z"/>
  <path class="text-color" d="M307 138.5h5.2a15 15 0 005-.8c1.5-.5 2.8-1.3 3.8-2.2 1-1 1.9-2 2.5-3.4.5-1.3.8-2.7.8-4.2 0-1.7-.3-3.2-.8-4.5a9.9 9.9 0 00-6.3-5.7c-1.5-.6-3.2-.8-5-.8h-11.7V151h6.6v-12.5zm0-5.4v-10.9h5.2c.9 0 1.7.2 2.4.5a5 5 0 011.7 1.2 5 5 0 011 1.8c.3.7.4 1.4.4 2.2 0 .7-.1 1.4-.4 2a4.7 4.7 0 01-2.7 2.8c-.7.3-1.5.4-2.4.4H307zm38.7 17.9h5.9v-25.4H345v17.8l-.7 1.1a4.5 4.5 0 01-2.4 1.5 7.4 7.4 0 01-3.8 0c-.5-.3-1-.6-1.3-1-.3-.4-.6-1-.7-1.7-.2-.7-.2-1.6-.2-2.6v-15h-6.6v15c0 1.9.3 3.5.7 4.9.4 1.3 1 2.5 1.8 3.3.8 1 1.7 1.6 2.8 2 1.1.4 2.3.6 3.6.6 1.5 0 2.8-.4 4-1a9.8 9.8 0 003.1-3l.4 3.5zm13.6-36v5.3h7.6v25.4h-7.6v5.3h21.5v-5.3h-7.3V115h-14.2zm44 36h6v-25.4h-6.6v17.8l-.7 1.1a4.5 4.5 0 01-2.5 1.5 7.4 7.4 0 01-3.8 0c-.5-.3-1-.6-1.2-1-.4-.4-.6-1-.8-1.7l-.2-2.6v-15H387v15c0 1.9.2 3.5.6 4.9.5 1.3 1 2.5 1.9 3.3.7 1 1.7 1.6 2.8 2 1 .4 2.3.6 3.6.6 1.4 0 2.7-.4 4-1a9.7 9.7 0 003-3l.4 3.5zm16.4-25.4H414V151h5.9v-19c0-.2.2-.4.3-.5a2 2 0 01.9-.9l.7-.1h.7l.6.4.4.8.1 1.2V151h5.8v-18.7-.4-.3l.3-.4.3-.4.6-.2a2.3 2.3 0 011.3 0c.3 0 .5.2.6.3l.4.8.2 1.2V151h6v-18a13 13 0 00-.5-3.7c-.3-1-.6-1.7-1.1-2.4-.5-.6-1.1-1-1.8-1.3-.6-.3-1.3-.4-2.1-.4-.6 0-1.2 0-1.7.2a5 5 0 00-2.3 1.5l-.7 1a4.6 4.6 0 00-1.2-1.9l-1.2-.6c-.5-.2-1-.2-1.6-.2a5 5 0 00-3.1 1c-.9.6-1.6 1.4-2 2.5l-.2-3zm26.5 0v5.4h7.2v14.7h-7.2v5.3h20.7v-5.3h-7v-20h-13.7zm6.7-6.5l.3 1.5c.2.4.4.7.8 1l1.1.8 1.6.2c1.1 0 2-.3 2.7-1 .7-.6 1-1.4 1-2.5 0-1-.3-1.8-1-2.4-.6-.7-1.6-1-2.7-1-.6 0-1.1 0-1.6.2l-1.1.7a3.3 3.3 0 00-1 2.5zm51.2 31.9h6l2.8-18.4.3-1.8.2 1.8 3 18.4h6l4.7-34.1h-6l-2.4 19.1-.1 1.4-.3-1.4-2.8-19.1h-4.7l-2.7 19-.2 1.4-.2-1.3-2.3-19.1h-6l4.7 34.1zm26-13v.6c0 1.8.2 3.6.7 5.1.6 1.6 1.3 3 2.4 4.1 1 1.2 2.2 2 3.7 2.7 1.5.7 3.2 1 5.1 1 2 0 3.6-.3 5.1-1 1.5-.6 2.7-1.5 3.8-2.7a12 12 0 002.3-4c.5-1.6.8-3.4.8-5.2v-.5c0-1.9-.3-3.6-.8-5.1a10.9 10.9 0 00-6-6.8c-1.6-.7-3.3-1-5.2-1-2 0-3.6.3-5 1-1.6.6-2.8 1.5-3.8 2.7-1 1.1-1.8 2.5-2.4 4-.5 1.6-.8 3.3-.8 5.2zm6.5.6v-.5c0-1 0-2 .3-3 .2-.9.5-1.7 1-2.4a5 5 0 011.6-1.6c.7-.5 1.5-.7 2.5-.7s1.8.2 2.5.7a5 5 0 011.7 1.6c.4.7.7 1.5 1 2.5l.2 2.9v.5c0 1 0 2-.3 3-.2.9-.5 1.7-1 2.4a5 5 0 01-1.6 1.7c-.7.4-1.5.6-2.5.6a5 5 0 01-2.5-.6 5 5 0 01-1.7-1.7l-1-2.4-.2-3zm41.4-13.4c-1.7 0-3.3.4-4.7 1.2-1.5.8-2.7 2-3.7 3.4v-.6l-.4-3.6h-6V151h6.5v-15.2a7 7 0 011.1-2c.5-.4 1-.9 1.7-1.2.5-.3 1-.5 1.8-.7l2.3-.2a20.8 20.8 0 015.2.6l1-6.5-2.1-.4c-.8-.2-1.7-.2-2.7-.2zm10 13v.4c0 1.9.1 3.6.6 5.2.4 1.5 1.1 2.9 2 4 .8 1.2 1.8 2 3 2.7a9 9 0 004.2 1 8.2 8.2 0 006.6-3.1l.3 2.6h5.9v-36H604v13a8.2 8.2 0 00-6.2-2.8 9 9 0 00-7.3 3.6c-1 1.1-1.6 2.5-2 4a20 20 0 00-.7 5.3zm6.4.4v-.5l.3-3a8 8 0 01.9-2.4 4.4 4.4 0 014-2.2 5 5 0 012.7.7 5 5 0 011.8 2v10.3c-.5.8-1 1.5-1.8 2a5 5 0 01-2.8.7c-1 0-1.7-.2-2.4-.6-.6-.4-1.1-1-1.5-1.6l-1-2.4-.2-3zm29.8-.1h5a15 15 0 005.1-.8c1.5-.5 2.8-1.3 3.9-2.2a10.3 10.3 0 003.3-7.6c0-1.7-.4-3.2-1-4.5a9.8 9.8 0 00-6.2-5.7c-1.5-.6-3.2-.8-5-.8h-11.7V151h6.6v-12.5zm0-5.4v-10.9h5c1 0 1.8.2 2.5.5a5 5 0 011.7 1.2 5 5 0 011 1.8c.3.7.4 1.4.4 2.2 0 .7-.1 1.4-.3 2a4.7 4.7 0 01-2.8 2.8c-.7.3-1.5.4-2.4.4h-5.1zm40.3-8c-1.8 0-3.3.5-4.8 1.3-1.4.8-2.6 2-3.7 3.4v-.6l-.3-3.6h-6V151h6.5v-15.2a7 7 0 011.1-2c.5-.4 1-.9 1.6-1.2l1.9-.7 2.2-.2a20.9 20.9 0 015.3.6l1-6.5-2.1-.4c-.9-.2-1.8-.2-2.7-.2zm22.9 26.4c2.4 0 4.6-.5 6.4-1.5 1.7-1 3-2 3.9-3.1l-3.3-3.6c-.7 1-1.7 1.7-2.9 2.2-1.2.5-2.4.7-3.7.7a6.5 6.5 0 01-6-3.3c-.3-.6-.6-1.4-.8-2.4h17.2v-2.8c0-1.9-.3-3.6-.8-5.1a10.1 10.1 0 00-6-6.5 12.3 12.3 0 00-9.8 0 11.5 11.5 0 00-6.3 6.9c-.6 1.6-1 3.3-1 5.3v1c0 1.6.4 3.2 1 4.7s1.5 2.8 2.7 3.9c1 1 2.5 2 4 2.6 1.6.6 3.4 1 5.4 1zm-.8-21a5.5 5.5 0 013.8 1.4 5 5 0 011.4 3.5v.5h-10.7l.7-2.2c.3-.7.7-1.3 1.2-1.8.4-.4 1-.8 1.6-1a5 5 0 012-.5zm33.7 13.5c0 .4-.1.8-.3 1.1-.2.3-.5.6-1 .9l-1.5.6a10.2 10.2 0 01-4.3 0c-.6-.1-1.2-.4-1.7-.7-.5-.3-1-.7-1.3-1.2-.3-.5-.5-1-.5-1.7h-6.2c0 1 .2 2 .7 3 .5 1 1.3 2 2.3 2.8 1 .8 2.2 1.4 3.6 2a18.3 18.3 0 009.8.2 12 12 0 003.6-1.7c1-.7 1.7-1.5 2.3-2.4.5-1 .8-2 .8-3.1 0-1.3-.3-2.3-.8-3.2a7 7 0 00-2.3-2.3c-1-.6-2-1-3.4-1.5l-4.2-1c-1 0-2-.3-2.6-.5-.7-.2-1.3-.4-1.7-.7-.4-.2-.7-.5-.8-.8a2.4 2.4 0 010-2.1l.8-1 1.5-.6 2-.2c1 0 1.8.1 2.4.3.7.3 1.2.6 1.6 1l.7 1 .2 1.2h6.5a7 7 0 00-.8-3.3c-.5-1-1.2-1.9-2.2-2.6-1-.7-2.2-1.3-3.6-1.7a16.5 16.5 0 00-9.3 0 11 11 0 00-3.4 1.7c-1 .7-1.7 1.6-2.2 2.5-.5 1-.7 2-.7 3 0 1.1.2 2 .7 2.9.5.8 1.2 1.5 2 2.2 1 .6 2 1.2 3.2 1.6l4 1.1a32.5 32.5 0 014.8 1.4c.5.2.8.5 1 .8.2.3.3.6.3 1zm28.8 0c0 .4-.1.8-.3 1.1l-.9.9-1.6.6a10.2 10.2 0 01-4.2 0c-.7-.1-1.3-.4-1.8-.7-.5-.3-1-.7-1.2-1.2-.4-.5-.6-1-.6-1.7h-6.2c0 1 .2 2 .7 3 .5 1 1.3 2 2.3 2.8 1 .8 2.2 1.4 3.6 2a18.3 18.3 0 009.8.2 12 12 0 003.6-1.7c1-.7 1.8-1.5 2.3-2.4.5-1 .8-2 .8-3.1 0-1.3-.3-2.3-.8-3.2a7 7 0 00-2.2-2.3c-1-.6-2.1-1-3.4-1.5l-4.3-1c-1 0-2-.3-2.6-.5-.7-.2-1.2-.4-1.6-.7-.4-.2-.7-.5-.9-.8a2.4 2.4 0 010-2.1l.8-1 1.5-.6 2-.2c1 0 1.8.1 2.5.3.6.3 1.2.6 1.6 1 .2.3.5.6.6 1l.2 1.2h6.5a7 7 0 00-.8-3.3c-.5-1-1.2-1.9-2.2-2.6-1-.7-2.2-1.3-3.6-1.7a16.5 16.5 0 00-9.3 0 11 11 0 00-3.4 1.7c-1 .7-1.6 1.6-2.1 2.5-.5 1-.8 2-.8 3 0 1.1.2 2 .7 2.9.5.8 1.2 1.5 2 2.2 1 .6 2 1.2 3.2 1.6l4.1 1.1a32.5 32.5 0 014.8 1.4c.4.2.7.5.9.8.2.3.3.6.3 1zM298.5 176.2v1.4h3v10h-3v1.4h7.8v-1.4h-3.1v-10h3v-1.4h-7.7zm10.8 12.8h1.7v-6.8a3.2 3.2 0 01.8-1 2.7 2.7 0 011.6-.5l1 .1.6.4.4.7.1 1.1v6h1.7v-6a5 5 0 00-.3-1.7 3 3 0 00-.6-1.1l-1-.7a4.1 4.1 0 00-2.5 0 3.5 3.5 0 00-1.9 1.4l-.1-1.4h-1.5v9.5zm17.2-2.5a1 1 0 01-.4.8l-.7.4-1.2.2-.8-.1c-.3 0-.5-.2-.8-.3l-.6-.6-.2-.8h-1.6c0 .4 0 .8.2 1.1l.8 1 1.3.7a5.7 5.7 0 003.3 0c.5 0 .9-.3 1.2-.5.4-.2.6-.5.8-.9a2.3 2.3 0 000-2.2c-.1-.3-.4-.5-.7-.8l-1.1-.5-1.6-.5-1.1-.2-.7-.4a1 1 0 01-.4-.4 1.2 1.2 0 010-1l.4-.4c.2-.2.4-.3.7-.3a3.3 3.3 0 011.8 0c.3 0 .5.2.7.4l.4.5.2.6h1.6c0-.4 0-.8-.3-1.2l-.7-1-1.2-.6-1.6-.2c-.6 0-1 0-1.5.2l-1.2.6c-.3.3-.6.6-.7 1a2.2 2.2 0 000 2c.1.3.4.6.7.8l1.1.6 1.5.4c.5 0 .8.2 1.1.3.3 0 .6.2.8.3l.4.5v.5zm8.3-9.3h-1.6v2.3h-2.5v1.2h2.5v5.2c0 .6 0 1.1.2 1.5l.6 1c.3.3.6.5 1 .6l1.2.2a8.3 8.3 0 002.1-.3l.5-.2-.2-1.2-.4.1a21.7 21.7 0 01-1.6.2h-.7a1.4 1.4 0 01-1-1V180.7h3.5v-1.2h-3.6v-2.3zM348 189h1.7v-.1l-.2-1-.1-1v-4.4c0-.5-.1-1-.3-1.4a3 3 0 00-2-1.6 5.3 5.3 0 00-3.1 0c-.5.2-.9.4-1.2.7a3 3 0 00-.7 1c-.2.2-.3.6-.3 1h1.6c0-.3 0-.5.2-.6 0-.2.2-.4.4-.5l.6-.4h1.8l.8.4a1.7 1.7 0 01.6 1.4v.7H346l-1.8.2c-.6.2-1 .3-1.4.6-.4.3-.7.6-.9 1a3 3 0 00-.3 1.4c0 .4 0 .7.2 1l.7 1 1 .6a4 4 0 003-.2l.7-.4.6-.4v.5l.2.5zm-2.9-1.2c-.3 0-.5 0-.8-.2l-.6-.3c-.1-.1-.3-.3-.3-.5a1.8 1.8 0 010-1.3c0-.2.2-.4.4-.5l1-.5 1.4-.1h1.6v2l-.4.5-.6.4a3.3 3.3 0 01-1.7.5zm7.7-12.3v1.4h3.3v10.7h-3.3v1.4h8v-1.4h-3.1v-12.1h-4.9zm10.8 0v1.4h3.3v10.7h-3.3v1.4h8v-1.4h-3v-12.1h-5zm14.7 13.1v-1.5h-1.7v1.5l-.2 1.5a4 4 0 01-.6 1.3l1 .6c.5-.5.8-1 1.1-1.6.3-.6.4-1.2.4-1.8zm23.8.4h1.5v-9.5h-1.7v6.8l-.3.6a2 2 0 01-.5.4l-.7.4a3.6 3.6 0 01-1.8 0l-.6-.4a2 2 0 01-.4-.9l-.1-1.2v-5.7h-1.6v5.6c0 .8 0 1.4.2 1.9s.4.9.7 1.2c.3.3.6.6 1 .7.4.2.9.3 1.4.3.6 0 1.1-.2 1.6-.4.5-.3.9-.6 1.2-1.1v1.3zm4.5 3.7h1.7V188a3.6 3.6 0 00.8.6l.8.4h1a3.3 3.3 0 002.8-1.3c.3-.4.5-1 .7-1.5.2-.6.3-1.3.3-2v-.1c0-.7-.1-1.4-.3-2-.2-.6-.4-1.1-.7-1.5a3.3 3.3 0 00-2.8-1.4 4 4 0 00-1.8.4l-.5.4a3 3 0 00-.4.4v-1h-1.6v13.2zm6.4-8.5v.2l-.1 1.3-.5 1c-.2.4-.5.7-.8.9-.3.2-.7.2-1.2.2h-.7l-.7-.3a2 2 0 01-.4-.4l-.3-.5V182l.3-.6.5-.4.6-.2a2.7 2.7 0 011.9.2l.8.7.5 1.1.1 1.4zm4.1 0v.2c0 .6.1 1.3.3 1.9.2.5.4 1 .8 1.5.3.4.7.8 1.2 1 .4.3 1 .4 1.5.4.6 0 1.1-.1 1.6-.3.4-.2.8-.5 1.1-.9v1h1.6v-13.5h-1.7v5a3 3 0 00-1-.9c-.5-.2-1-.3-1.6-.3a3.4 3.4 0 00-2.7 1.4c-.4.4-.6 1-.8 1.5-.2.6-.3 1.3-.3 2zm1.7.2v-.2l.1-1.4.5-1c.2-.4.4-.6.8-.8.3-.2.7-.3 1.1-.3.6 0 1 .1 1.4.4.3.2.6.5.8 1v4.3c-.2.4-.5.8-.8 1-.4.3-.8.4-1.4.4-.4 0-.8 0-1.1-.3-.4-.2-.6-.4-.8-.7l-.5-1.1-.1-1.3zm15.7 4.6h1.7v-.1l-.2-1-.1-1v-4.4c0-.5-.1-1-.3-1.4a2.9 2.9 0 00-2-1.6 5.3 5.3 0 00-3.1 0c-.5.2-.9.4-1.2.7a3 3 0 00-.7 1c-.2.2-.3.6-.3 1h1.6c0-.3 0-.5.2-.6 0-.2.2-.4.4-.5l.6-.4h1.9l.6.4a1.7 1.7 0 01.6 1.4v.7h-1.7l-1.8.2c-.6.2-1 .3-1.4.6-.4.3-.7.6-.9 1a3 3 0 00-.3 1.4c0 .4 0 .7.2 1l.7 1 1 .6a4 4 0 003.7-.6l.6-.4v.5l.2.5zm-2.9-1.2c-.3 0-.6 0-.8-.2l-.6-.3-.4-.5a1.8 1.8 0 010-1.3l.5-.5c.2-.2.5-.4 1-.5l1.4-.1h1.5v2l-.3.5-.6.4a3.4 3.4 0 01-1.7.5zm11.3-10.6h-1.6v2.3h-2.5v1.2h2.5v5.2c0 .6 0 1.1.2 1.5.2.4.4.8.7 1 .2.3.5.5.9.6l1.2.2a8.3 8.3 0 002.1-.3l.5-.2-.2-1.2-.4.1a19.9 19.9 0 01-1.6.2h-.7a1.4 1.4 0 01-1-1V180.7h3.5v-1.2H443v-2.3zm11.2 12c.9 0 1.7-.2 2.3-.6.6-.4 1.1-.8 1.4-1.3l-1-.7a3.4 3.4 0 01-2.6 1.2 2.9 2.9 0 01-2.8-1.8l-.2-1.2h6.8v-.8c0-.7-.1-1.3-.3-1.9-.2-.5-.4-1-.8-1.4-.3-.5-.7-.8-1.2-1-.6-.3-1.1-.4-1.8-.4a4 4 0 00-3 1.3 5.4 5.4 0 00-1.4 3.6v.4c0 .6.1 1.3.4 1.8.2.6.5 1 .9 1.5l1.4 1c.6.2 1.2.3 1.9.3zm-.2-8.5c.4 0 .7 0 1 .2.3.1.6.3.8.6.2.2.4.5.5.9l.1.9h-5c0-.4 0-.8.2-1l.6-1 .8-.5 1-.2zm23.8 8.3h1.7v-.1l-.2-1v-5.4c0-.5-.2-1-.4-1.4a2.9 2.9 0 00-2-1.6 5.3 5.3 0 00-3 0c-.5.2-1 .4-1.2.7a3 3 0 00-.8 1c-.2.2-.3.6-.3 1h1.7l.1-.6.4-.5.7-.4h1.8l.7.4a1.7 1.7 0 01.6 1.4v.7h-1.8l-1.8.2c-.5.2-1 .3-1.4.6l-.9 1a3 3 0 00-.3 1.4c0 .4.1.7.3 1 .1.4.3.7.6 1l1 .6a4 4 0 003.1-.2 3.8 3.8 0 001.2-.8v.5l.2.5zm-2.8-1.2c-.3 0-.6 0-.9-.2l-.6-.3-.3-.5a1.8 1.8 0 010-1.3c0-.2.2-.4.4-.5l1-.5 1.5-.1h1.5v2l-.4.5a2.8 2.8 0 01-1.3.7l-1 .2zm7.4 1.2h1.6v-6.8a3.2 3.2 0 011-1 2.8 2.8 0 011.5-.5l.9.1.7.4.4.7.1 1.1v6h1.6v-6a5 5 0 00-.2-1.7 3 3 0 00-.7-1.1c-.2-.3-.6-.5-1-.7a4.1 4.1 0 00-2.4 0 3.5 3.5 0 00-2 1.4v-1.4h-1.5v9.5zm10.5-4.8v.2c0 .6.1 1.3.3 1.9l.7 1.5c.4.4.8.8 1.2 1 .5.3 1 .4 1.6.4.6 0 1.1-.1 1.5-.3.5-.2.9-.5 1.2-.9v1h1.5v-13.5h-1.6v5a3 3 0 00-1.1-.9c-.4-.2-1-.3-1.5-.3a3.4 3.4 0 00-2.8 1.4c-.3.4-.5 1-.7 1.5-.2.6-.3 1.3-.3 2zm1.6.2v-.2c0-.5 0-1 .2-1.4 0-.4.2-.7.5-1 .2-.4.4-.6.7-.8l1.2-.3c.6 0 1 .1 1.4.4.3.2.6.5.8 1v4.3c-.2.4-.5.8-.8 1-.4.3-.9.4-1.4.4-.4 0-.8 0-1.2-.3l-.7-.7c-.3-.3-.4-.7-.5-1.1l-.2-1.3zm19.9-.2v.2c0 .6 0 1.3.3 1.9l.8 1.5a4.3 4.3 0 003.2 1.4c.7 0 1.3-.1 1.8-.4a4 4 0 001.4-1l.8-1.5c.2-.6.3-1.3.3-2v-.1c0-.7 0-1.4-.3-2l-.8-1.5a4.2 4.2 0 00-3.2-1.4 4.2 4.2 0 00-3.2 1.4l-.8 1.6c-.2.5-.3 1.2-.3 1.9zm1.6.2v-.2c0-.5 0-1 .2-1.4 0-.4.3-.8.5-1 .2-.4.5-.7.8-.9.4-.2.7-.3 1.2-.3l1.2.3.8.8c.3.3.4.7.5 1.1l.2 1.4v.2c0 .4 0 .9-.2 1.3 0 .4-.2.8-.5 1.1l-.8.8c-.3.2-.7.3-1.2.3a2.4 2.4 0 01-2-1l-.5-1.2-.2-1.3zm15.9-5c-.7 0-1.3 0-1.9.4-.5.3-1 .7-1.4 1.2v-1.5h-1.6v9.5h1.6v-6.1l.4-.8a2.6 2.6 0 011.5-1l1-.2a7.2 7.2 0 011.8.2l.3-1.6-.8-.1h-1zm8.6 8.5c-.5 0-1-.1-1.3-.3l-.8-.8c-.2-.4-.4-.7-.4-1.1a6 6 0 01-.2-1.3v-.3c0-.4 0-.9.2-1.3 0-.4.2-.7.4-1 .2-.4.5-.6.8-.8.4-.2.8-.3 1.3-.3a2.5 2.5 0 011.7.6 2.1 2.1 0 01.6 1.5h1.6a3.4 3.4 0 00-2.3-3.2c-.5-.2-1-.3-1.6-.3-.7 0-1.3.1-1.9.4-.5.3-1 .6-1.3 1-.4.5-.7 1-.8 1.6a6 6 0 00-.3 1.8v.3c0 .7 0 1.3.3 1.8.1.6.4 1.1.8 1.5.3.5.8.8 1.3 1a4.2 4.2 0 005.4-1.6c.3-.3.4-.7.4-1.1h-1.6c0 .3 0 .5-.2.7a2 2 0 01-.5.6l-.7.4-.9.2zm8.4-7v-5.4h-1.6V189h1.6v-7a3 3 0 01.9-.8 2.7 2.7 0 011.5-.5l1 .1.7.5.4.7.1 1v6h1.6v-6c0-.6 0-1.2-.2-1.6a3 3 0 00-.7-1.2l-1-.7a4 4 0 00-2.4 0 3.2 3.2 0 00-1.5.9l-.4.5zm13.4 8.3c1 0 1.7-.2 2.3-.6.6-.4 1.1-.8 1.4-1.3l-1-.7a3.3 3.3 0 01-3.8 1l-1-.7-.6-1-.2-1.1h6.8v-.8c0-.7-.1-1.3-.3-1.9-.2-.5-.4-1-.8-1.4-.3-.5-.7-.8-1.2-1-.5-.3-1.1-.4-1.8-.4a4 4 0 00-3 1.3c-.4.4-.7 1-1 1.6-.2.6-.4 1.2-.4 2v.4c0 .6.2 1.3.4 1.8.2.6.5 1 .9 1.5l1.4 1c.6.2 1.2.3 1.9.3zm-.2-8.5c.4 0 .7 0 1 .2.4.1.6.3.8.6.2.2.4.5.5.9l.1.9h-5c0-.4 0-.8.3-1l.5-1 .8-.5 1-.2zm13.1 5.8v.4l-.3.4-.8.4-1.1.2-.9-.1-.7-.3a2 2 0 01-.6-.6c-.2-.2-.2-.5-.3-.8h-1.6c0 .4 0 .8.3 1.1.2.4.4.7.8 1 .3.3.8.5 1.3.7a5.7 5.7 0 003.3 0c.4 0 .8-.3 1.2-.5.3-.2.6-.5.7-.9a2.3 2.3 0 000-2.2c0-.3-.3-.5-.6-.8l-1.2-.5-1.6-.5-1-.2-.8-.4a1 1 0 01-.3-.4 1.2 1.2 0 010-1l.4-.4.6-.3a3.3 3.3 0 011.8 0c.3 0 .5.2.7.4l.5.5.1.6h1.6c0-.4 0-.8-.2-1.2l-.8-1-1.2-.6a5.1 5.1 0 00-4.2.6c-.4.3-.6.6-.8 1a2.2 2.2 0 000 2l.7.8 1.2.6 1.5.4c.4 0 .8.2 1 .3.4 0 .6.2.8.3l.4.5.1.5zm8.4-9.3h-1.7v2.3h-2.5v1.2h2.5v5.2l.2 1.5c.2.4.4.8.7 1 .3.3.6.5 1 .6l1.1.2a8.3 8.3 0 002.1-.3l.5-.2-.2-1.2a127.7 127.7 0 01-2 .3h-.7a1.4 1.4 0 01-1-1V180.7h3.6v-1.2h-3.6v-2.3zm13.1 2.1c-.6 0-1.3.2-1.8.5s-1 .7-1.4 1.2v-1.5h-1.6v9.5h1.6v-6.1l.4-.8a2.6 2.6 0 011.4-1l1.1-.2a7.2 7.2 0 011.8.2l.2-1.6-.7-.1h-1zm10.9 9.7h1.7v-.1l-.3-1v-5.4c0-.5-.2-1-.4-1.4a2.9 2.9 0 00-2-1.6 5.3 5.3 0 00-3 0c-.5.2-.9.4-1.2.7a3 3 0 00-.8 1l-.2 1h1.6l.1-.6.4-.5.7-.4h1.8l.7.4a1.7 1.7 0 01.6 1.4v.7h-1.8l-1.8.2c-.5.2-1 .3-1.3.6l-1 1a3 3 0 00-.2 1.4c0 .4 0 .7.2 1l.7 1 1 .6a4 4 0 003-.2 3.8 3.8 0 001.2-.8l.1.5.2.5zm-2.9-1.2c-.3 0-.6 0-.8-.2-.3 0-.5-.2-.6-.3l-.4-.5a1.8 1.8 0 010-1.3l.4-.5 1-.5 1.5-.1h1.5v2l-.4.5-.6.4a3.3 3.3 0 01-1.6.5zm11.3-10.6h-1.6v2.3h-2.5v1.2h2.5v5.2c0 .6 0 1.1.2 1.5.1.4.4.8.6 1 .3.3.6.5 1 .6l1.2.2a8.3 8.3 0 002-.3l.6-.2-.3-1.2-.3.1a19.9 19.9 0 01-1.6.2h-.7a1.4 1.4 0 01-1-1l-.1-.9v-5.2h3.6v-1.2H616v-2.3zm11.1 12c1 0 1.7-.2 2.4-.6.6-.4 1-.8 1.4-1.3l-1-.7a3.4 3.4 0 01-2.7 1.2 2.9 2.9 0 01-2.7-1.8l-.3-1.2h6.8v-.8c0-.7 0-1.3-.2-1.9-.2-.5-.4-1-.8-1.4-.3-.5-.8-.8-1.3-1-.5-.3-1-.4-1.8-.4a4 4 0 00-3 1.3c-.4.4-.7 1-1 1.6-.2.6-.3 1.2-.3 2v.4a4.4 4.4 0 001.3 3.3c.4.4.8.7 1.4 1l1.8.3zm-.2-8.5c.5 0 .8 0 1.1.2.3.1.6.3.8.6.2.2.3.5.4.9l.2.9h-5.1c0-.4.2-.8.3-1l.6-1a2.4 2.4 0 011.7-.7zm13.2 5.8a1 1 0 01-.4.8c-.1.2-.4.3-.7.4l-1.2.2-.8-.1c-.3 0-.5-.2-.8-.3l-.5-.6c-.2-.2-.3-.5-.3-.8h-1.6c0 .4 0 .8.2 1.1l.8 1 1.3.7a5.7 5.7 0 003.3 0c.5 0 .9-.3 1.2-.5.4-.2.6-.5.8-.9a2.3 2.3 0 000-2.2c-.1-.3-.4-.5-.7-.8l-1.1-.5-1.6-.5-1.1-.2-.7-.4a1 1 0 01-.4-.4v-.5-.5l.4-.4c.2-.2.4-.3.7-.3a3.3 3.3 0 011.8 0c.3 0 .5.2.7.4l.4.5.2.6h1.6c0-.4 0-.8-.3-1.2l-.7-1-1.2-.6a5.1 5.1 0 00-4.3.6c-.3.3-.6.6-.7 1a2.2 2.2 0 000 2c.1.3.4.6.7.8l1.1.6 1.5.4c.5 0 .9.2 1.2.3.3 0 .5.2.7.3l.4.5v.5zm16 2.5h1.6l1.6-9.1v-.5l.2.5 1.5 9.1h1.7l1.5-12.8h-1.5l-1 8.8v.5-.5l-1.6-8.8h-1.4L657 185v.5l-.1-.5-1-8.8h-1.5l1.5 12.8zm9.6-4.8v.2c0 .6.1 1.3.3 1.9l.9 1.5c.4.4.8.8 1.3 1 .6.3 1.2.4 1.9.4.6 0 1.2-.1 1.8-.4a4 4 0 001.3-1c.4-.4.7-1 .9-1.5.2-.6.3-1.3.3-2v-.1c0-.7-.1-1.4-.3-2l-.9-1.5a4.2 4.2 0 00-3.2-1.4 4.2 4.2 0 00-3.1 1.4c-.4.4-.7 1-.9 1.6-.2.5-.3 1.2-.3 1.9zm1.7.2v-.2l.1-1.4.5-1c.3-.4.5-.7.9-.9.3-.2.7-.3 1.1-.3.5 0 .9.1 1.2.3.4.2.6.5.9.8l.5 1.1.2 1.4v.2l-.2 1.3-.5 1.1c-.2.3-.5.6-.9.8a2.4 2.4 0 01-3.2-.8l-.5-1.1-.1-1.3zm15.8-5c-.7 0-1.3 0-1.8.4-.6.3-1 .7-1.4 1.2v-1.5h-1.6v9.5h1.6v-6.1l.4-.8a2.6 2.6 0 011.4-1l1-.2a7.2 7.2 0 011.9.2l.2-1.6-.7-.1h-1zm4.3 4.8v.2c0 .6 0 1.3.3 1.9l.7 1.5c.4.4.8.8 1.2 1 .5.3 1 .4 1.6.4.6 0 1-.1 1.5-.3.5-.2.8-.5 1.2-.9v1h1.5v-13.5h-1.6v5a3 3 0 00-1.1-.9c-.4-.2-1-.3-1.5-.3a3.4 3.4 0 00-2.8 1.4c-.3.4-.6 1-.7 1.5-.2.6-.3 1.3-.3 2zm1.6.2v-.2c0-.5 0-1 .2-1.4 0-.4.2-.7.4-1 .2-.4.5-.6.8-.8l1.2-.3c.5 0 1 .1 1.3.4.4.2.7.5.9 1v4.3c-.2.4-.5.8-.9 1-.3.3-.8.4-1.3.4s-.8 0-1.2-.3l-.8-.7-.4-1.1-.2-1.3zm9.5 8.3h1.6V188a3.6 3.6 0 00.8.6l.9.4h1a3.3 3.3 0 002.8-1.3c.3-.4.5-1 .7-1.5.2-.6.2-1.3.2-2v-.1c0-.7 0-1.4-.2-2-.2-.6-.4-1.1-.7-1.5a3.3 3.3 0 00-2.8-1.4 4 4 0 00-1.8.4l-.5.4a3 3 0 00-.4.4l-.1-1h-1.5v13.2zm6.4-8.5v.2l-.1 1.3-.5 1c-.2.4-.5.7-.8.9-.3.2-.7.2-1.2.2h-.8l-.6-.3a2 2 0 01-.4-.4l-.4-.5V182l.4-.6.5-.4.6-.2a2.7 2.7 0 011.9.2l.8.7.5 1.1.1 1.4zm10.7-4.9c-.7 0-1.3.2-1.9.5-.5.3-1 .7-1.4 1.2v-1.5h-1.6v9.5h1.6v-6.1l.4-.8a2.6 2.6 0 011.4-1l1.1-.2a7.2 7.2 0 011.8.2l.2-1.6-.7-.1h-1zm8.7 9.9c1 0 1.7-.2 2.4-.6.6-.4 1-.8 1.4-1.3l-1-.7a3.4 3.4 0 01-2.7 1.2 2.9 2.9 0 01-2.7-1.8l-.3-1.2h6.8v-.8c0-.7 0-1.3-.2-1.9l-.8-1.4c-.3-.5-.8-.8-1.3-1-.5-.3-1-.4-1.8-.4a4 4 0 00-3 1.3c-.4.4-.7 1-1 1.6-.2.6-.3 1.2-.3 2v.4a4.4 4.4 0 001.3 3.3c.4.4.8.7 1.4 1l1.8.3zm-.2-8.5c.4 0 .8 0 1.1.2.3.1.6.3.8.6.2.2.3.5.4.9l.2.9h-5.1c0-.4.2-.8.3-1l.6-1a2.4 2.4 0 011.7-.7zm13.2 5.8a1 1 0 01-.4.8l-.7.4-1.2.2-.8-.1c-.3 0-.5-.2-.8-.3l-.5-.6c-.2-.2-.3-.5-.3-.8H731c0 .4 0 .8.2 1.1l.8 1 1.3.7a5.7 5.7 0 003.3 0c.5 0 .9-.3 1.2-.5.4-.2.6-.5.8-.9.2-.3.3-.7.3-1.1 0-.4 0-.8-.3-1-.1-.4-.4-.6-.7-.9l-1.1-.5-1.6-.5-1.1-.2-.7-.4a1 1 0 01-.4-.4v-.5-.5l.4-.4c.2-.2.4-.3.7-.3a3.3 3.3 0 011.8 0c.3 0 .5.2.7.4l.4.5.2.6h1.6c0-.4 0-.8-.3-1.2l-.7-1-1.2-.6a5.1 5.1 0 00-4.3.6c-.3.3-.6.6-.7 1a2.2 2.2 0 000 2c.1.3.4.6.7.8l1.1.6 1.5.4c.5 0 .9.2 1.1.3.3 0 .6.2.8.3l.4.5v.5zm10.8 0l-.1.4-.3.4c-.1.2-.4.3-.7.4l-1.2.2-.8-.1c-.3 0-.5-.2-.8-.3l-.5-.6c-.2-.2-.3-.5-.3-.8h-1.6c0 .4 0 .8.2 1.1.2.4.5.7.9 1 .3.3.7.5 1.2.7a5.7 5.7 0 003.3 0c.5 0 .9-.3 1.2-.5.4-.2.6-.5.8-.9a2.3 2.3 0 000-2.2c-.1-.3-.4-.5-.7-.8l-1.1-.5-1.6-.5-1.1-.2-.7-.4a1 1 0 01-.4-.4 1.2 1.2 0 010-1l.4-.4c.2-.2.4-.3.7-.3a3.3 3.3 0 011.8 0c.3 0 .5.2.7.4l.4.5.2.6h1.6c0-.4 0-.8-.3-1.2l-.7-1-1.2-.6a5.1 5.1 0 00-4.3.6c-.3.3-.6.6-.7 1a2.2 2.2 0 000 2c.1.3.4.6.7.8l1.1.6 1.5.4c.5 0 .9.2 1.2.3.3 0 .5.2.7.3l.4.5v.5zM299.4 213h1.3l1.5-5.8.2-1.5.3 1.5 1.5 5.8h1.2l2-9.5H306l-1 6-.3 1.5-.2-1.4-1.5-6.1h-1l-1.6 6-.2 1.4-.2-1.3-1.1-6.1h-1.5l2 9.5zm10.2-9.5v1.4h3.2v6.7h-3.2v1.4h8v-1.4h-3.1v-8.1h-4.9zm3-2.5c0 .3.1.5.3.7l.7.2c.3 0 .6 0 .7-.2.2-.2.3-.4.3-.7l-.1-.4-.2-.3-.3-.2h-.8l-.3.2-.2.3v.4zm11.4.2h-1.6v2.3h-2.5v1.2h2.5v5.2c0 .6 0 1.1.2 1.5l.6 1c.3.3.6.5 1 .6l1.2.2a8.3 8.3 0 002-.3l.6-.2-.2-1.2-.4.1a19.9 19.9 0 01-1.6.2h-.7a1.4 1.4 0 01-1-1l-.1-.9v-5.2h3.6v-1.2H324v-2.3zm8.6 3.7v-5.4H331V213h1.6v-7a3 3 0 01.9-.8 2.7 2.7 0 011.5-.5l1 .1.7.5.4.7v7h1.7v-6c0-.6 0-1.2-.2-1.6a3 3 0 00-.7-1.2l-1-.7a4 4 0 00-2.5 0 3.2 3.2 0 00-1.4.9l-.4.5zm21.8 3h2.5c.6 0 1.1-.1 1.6-.3a4 4 0 001.4-.7l.9-1.2c.2-.5.3-1 .3-1.7 0-.6-.1-1.1-.3-1.6-.2-.5-.6-.9-1-1.2a4 4 0 00-1.3-.7c-.5-.2-1-.3-1.6-.3h-4.2V213h1.7v-5.1zm0-1.4v-5h2.5l1 .2.9.5.5.8.2 1c0 .4 0 .8-.2 1.1-.1.3-.3.6-.6.8l-.8.5-1 .1h-2.5zm15.3 6.5h1.4v-9.5h-1.6v6.8l-.3.6a2 2 0 01-.5.4l-.7.4a3.6 3.6 0 01-1.8 0c-.3-.1-.5-.2-.6-.4a2 2 0 01-.4-.9l-.1-1.2v-5.7h-1.7v5.6c0 .8.1 1.4.3 1.9.1.5.4.9.6 1.2l1 .7 1.4.3c.7 0 1.2-.2 1.7-.4.5-.3.8-.6 1.2-1.1v1.3zm4.8-13.5v1.4h3.2v10.7h-3.2v1.4h8v-1.4h-3.2v-12.1h-4.8zm16.8 13.5h1.5v-9.5H391v6.8l-.3.6a2 2 0 01-.5.4l-.7.4a3.6 3.6 0 01-1.8 0c-.3-.1-.5-.2-.6-.4a2 2 0 01-.4-.9l-.1-1.2v-5.7H385v5.6c0 .8 0 1.4.2 1.9s.4.9.7 1.2c.3.3.6.6 1 .7.4.2.9.3 1.4.3.6 0 1.1-.2 1.6-.4.5-.3.9-.6 1.2-1.1v1.3zm5.3-9.5H395v9.5h1.6v-7.6-.2l.3-.3.4-.1a1.7 1.7 0 011 0s.2 0 .3.2l.2.3V213h1.6v-7.1-.1-.5l.3-.3.3-.2.6-.1h.4l.4.3.2.4v7.6h1.6v-7.1c0-.5 0-.9-.2-1.2a1.7 1.7 0 00-1.1-1.2 2.5 2.5 0 00-2 .1 2.2 2.2 0 00-.7.7 1.8 1.8 0 00-.6-.7l-.5-.2h-.7c-.4 0-.8 0-1.1.2l-.8.8v-1zm10.3 0v1.4h3.2v6.7H407v1.4h8v-1.4h-3.1v-8.1h-5zm3-2.5c0 .3 0 .5.3.7l.7.2c.3 0 .6 0 .7-.2.2-.2.3-.4.3-.7l-.1-.4-.2-.3-.3-.2h-.8l-.3.2-.2.3v.4zm10.4 11c0 .3 0 .6.3.8.2.3.5.4 1 .4.4 0 .7-.1 1-.4l.2-.9c0-.3 0-.6-.3-.8-.2-.3-.5-.4-1-.4-.4 0-.7.1-1 .4l-.2.8z"/>
  <g clip-path="url(#clip0)">
    <path class="text-color" fill-rule="evenodd" d="M217 90.7c9.2 0 17.6 3.6 23.8 9.3-3 0-6.1 1.8-6.2 6-.3 8.4 10 10.2 4.5 27.3l-4.6 14-12.6-37c-.2-.6 0-1 .7-1h3.6c.2 0 .3-.1.3-.3v-2.1c0-.2-.1-.4-.3-.4-6.8.3-13.5.3-20.2 0-.1 0-.3.2-.3.4v2c0 .3.2.4.3.4h3.6c.8 0 1 .3 1.2.8l5.2 14.2-7.8 23.5-12.8-37.7c-.1-.5 0-.8.5-.8h4c.3 0 .4-.1.4-.3v-2.1c0-.2-.1-.4-.3-.4l-12.6.3c6.3-9.7 17.2-16 29.6-16zm31 18.5a35 35 0 01-14 47.7l11-31.1a49.1 49.1 0 003-16.6zm-19.2 50a35.1 35.1 0 01-22 .5l10.8-31 11.2 30.5zm-26.9-1.3a35.3 35.3 0 01-17-46.5l17 46.5zM217 87.4a38.6 38.6 0 110 77.2 38.6 38.6 0 010-77.2zm0-2.4a41 41 0 110 82 41 41 0 010-82z" clip-rule="evenodd"/>
  </g>
  <path fill="#FF008E" d="M124 141.5c1.2-.5 3-1.5 4.2-1.3a31.4 31.4 0 008.1.2c2-.3 3.7-1.2 5.6-1.7 1.4-.3 2.8-.3 4 0 1.5.4 4 .8 5.5.5 2.3-.5 3.2-1 5.5-1.3 3.1-.4 5 1.8 7.8 1.9 1.7 0 3.8-1 5.5-.3 1.5.6 2.6 2 2.1 1.3a16 16 0 00-4.2-4.4c-4.6-2.9-9.7-3.5-15-4.1-2.4-.3-4.9-1-7.4-.8l-6.7.7c-2.2.3-4.5 1.2-6.6 2l-8.3 7.3z"/>
  <path fill="#910090" d="M96 164.2c-5-.5-12.1-4.6-13.4-5.8-3.9-3.7-2.6-9.5-.4-13.6 3.5-6.6 11-10.2 17.2-13.6 2.8-1.5 9.7-4.3 18.3-4.6 6.2-.3 12.7.5 16.6 1.6 2 .6 6.4 1.3 8.4 1.5 3 .2 2.3-.4 5.2-.1-6.6 5.3-15.3 6.7-22.4 11-3.8 2.4-8 4.7-11.3 7.6-1.9 1.6-4 2.8-5.9 4.4-1.4 1.2-4 2.3-4.8 4"/>
  <path fill="#C300B6" d="M108 135.7s8.4-8.1 20-1.3L112.2 148l-4.1-12.2z"/>
  <path fill="#C300B6" d="M117.8 147.9c1.6-.2 5.5 6.8 6.9 4.5 9.6-16 24-19 32.7-18.3 10.7 1 13.1 5 15.7 8.3l.9 1a27.1 27.1 0 00-22.5-17c-8.5-1.1-17.3-.3-25.2 4.5a31.8 31.8 0 00-10.2 9.3s2.5.2 1.7 7.7z"/>
  <path fill="#910090" d="M120.3 136.6s11.4-8.7 29.4-8.1c6.2.2 16.4 1.7 22.7 11.8a26.5 26.5 0 00-21.1-14c-8.5-1-19.2-1-27 4-4.7 3.1-4 6.3-4 6.3z"/>
  <path fill="url(#paint0_linear)" d="M134.7 188.4c-2.4.4-4.7 1.2-6.8 2.4-2.1 1.1-4.1 4-5.3 6l-1.8 3.3c-.6 1-1.1 2.3-1.8 3.2-1 1.2-3.2.7-4.4.5-2.5-.4-4.5-1.2-7-2.1-2-.9-4.5-2.2-6-4-.8-1-.1-2 .8-2-.7-1.8.2-3.4 2.3-2.7-.5-2.2 0-4.1 2.2-3.8 2 .3 3.3 2.3 4.7 3.5.7.6 2.2 2 3 2.4 1.1.5 1.4.4 2-.6 1.6-2.1 2.1-3.3 3.6-4.8a17 17 0 018-5"/>
  <path fill="#56D7E4" d="M133.5 187.6c-2 .6-4 1.4-6 2.4a19.2 19.2 0 00-5.5 6.8l-1.9 3.7c-.6 1-1 2.3-1.7 3.3l.6-.6c.7-.8 1.2-2.1 1.8-3l1.8-3.4c1.2-2 3.2-4.9 5.3-6 2.2-1.2 4.5-2 6.9-2.4l-1.3-.8z"/>
  <path fill="url(#paint1_linear)" d="M93.2 161.4c-.7 4.2-3.7 7.2-8 6.3-2.3-.5-3-1.3-3.5-3.5-.6-1.8-2-3.2-4-3-2.2 0-3.9 1.6-4.5 3.8-.8 2.5.9 4.8 2.8 6.3 3.5 2.7 9.1 3.3 13.1 2.2 5.5-1.5 7-6.7 8.9-11.2"/>
  <path fill="#56D7E4" d="M88.7 172c-4 1-9 .6-12.4-2-1.4-1.1-3-2.2-3.3-3.9-.1 2.1 1.4 4 3 5.3 3.5 2.7 9.1 3.3 13.1 2.2 5.5-1.5 7-6.7 8.9-11.2l-.5-.1c-2.3 2.4-3 8-8.8 9.7z"/>
  <path fill="url(#paint2_linear)" d="M80 164.4c-.8 1.8-.2 3.5 2.3 2.6 2.5-1 2.5-3.7.9-4.2a3 3 0 00-3.2 1.6z"/>
  <path fill="#56D7E4" d="M82.2 166.1c-1 .4-2 .4-2.5.2.2.8 1 1.3 2.6.7a2.8 2.8 0 002-2c-.6.6-1.3 1-2 1.1z"/>
  <path fill="url(#paint3_linear)" d="M135.7 178.8c6.2 1.7 14.6-1.2 22.6-5.6 7.4-4.1 12.4-5.7 16-5.3 6.2.6 6.3 7.5-.2 11.4-6.6 4-20.1 8.2-40.9 9.4-6.2.3 3.7-2.8-2.6-4.1-4.7-1 0-6-4.1-7.9"/>
  <path fill="url(#paint4_linear)" d="M82.3 138c-.2-7.5 1.6-10 5.6-12.4 4-2.4 10.8-3.8 16.7-1.9 7.3 2.4 10.2 7.2 13.7 12.8 1 1.7 1.3 4 4.5 7.4 6.5 7 12.5 10.4 19.9 18.4 13.5 14.9 9.6 23 9.6 23s-13.9 4-22.8 3.5c-8-.6-13.1-.9-20.5-6A80.4 80.4 0 0188.6 157c-.5-1-6-7.8-6.3-19z"/>
  <path fill="#56D7E4" d="M173 178.4c-5.7 3.3-14.4 5.2-27.8 7.8-4 .9-8.5 1.7-15.4 1.2-8-.6-13.1-1-20.6-5.9-12-7.7-20.9-25-20.4-24C93 166 102 178.2 109 183a34 34 0 0020 6.5c14.5.8 23.5-3 27.6-3.9 8.4-1.7 14-3.6 18.5-6.7 5-3.5 3.8-7.7 3.8-7.7s.4 3.6-6 7.2z"/>
  <path fill="url(#paint5_linear)" d="M175.5 192.8a22 22 0 00-5.3-6c-1-1-2.2-1.9-3.4-2.7-1-.6-2.6-1.8-5.4-.6-1.9.9-4.2 2.1-6 1.7-2.3-.6-5-3.1-6.3-4.6l-6.7 3 1 1.1c2 2.4 5.6 5 8.3 6.3 2.8 1.3 5.4.6 8.4-.1l.7-.2c1.7 2 2.7 4.8 3.8 7.1.5 1 1.2 2.3 2.3 2.4 1.7.1 2.1-1 2.3-2.7.4.7 1.6 2 2.6 2 1.4-.1 1.5-1.8 1.4-3.3 1 1.3 2 1.6 2.8.7.7-.9.2-2.8-.5-4z"/>
  <path fill="#56D7E4" d="M175.5 192.8c-.7-1.1-1.5-2.3-2.4-3.3l-.1 1.9c-.3 1.5-1.2 4.3-3.2 3.4-.7-.4-1.5-1.3-2.3-.8-.7.5-.6 2-1.4 2.3-.8.3-1.4-.8-1.9-1.3-.5-.4-.7-.3-.9.1l1.3 2.7c.5 1 1.2 2.3 2.3 2.4 1.7.1 2.1-1 2.3-2.7.4.7 1.6 2 2.6 2 1.4-.1 1.5-1.8 1.4-3.3 1 1.3 2 1.6 2.8.7.7-.9.2-2.8-.5-4zM160.7 189.7c-1.5 0-2.7.4-4 .5-1.6 0-3.3-.1-4.8-.6-1.4-.6-2.6-1.4-3.7-2.4-1.8-1.4-5.2-4-6.5-4 0 0 5 5.3 8 7 1.8 1 3.8 1.6 5.8 1.6 2.1-.1 5.6-1.2 6.4-1.3l1.3.1s-.6-1-2.5-1z"/>
  <path fill="#56D7E4" d="M145.7 185.7c-1.8-3-12.2-5.9-12-2.7-1-.7-2-1.2-3.3-1.5-.5-.2-2.8-.4-2.5 1-.7-.4-6.7-4.5-6.4-1.8-1.6-1.3-4-3-6-2.4-1.1.3-1 1.7-.7 2.4-1.4-1-4.1-2.8-5.7-2.5-.8.2-.4 1.3.6 2.2-1-1-2-1.7-3.3-2.3-.8-.4-1.8-.6-2.8-.6-.2.7.1 1 .9 1.7 0 0 8.3 9.2 20.5 9.2 0 0 17.1 1.1 20.7-2.7z"/>
  <path fill="url(#paint6_linear)" d="M138.2 126c2.9-5.4.8-6.4.8-6.4-1-.4-1.8-.2-2.7 1.1-1.2 1.8-2.1 5.5-2.1 5.5v-3.5c0-3.8-2-3.4-2-3.4-1.8.2-2 3-2.1 5.5l-.1 3c-1.4 0-3.3.7-3.1 2 0 0 .3 2.4 2.7 1.9a33.2 33.2 0 01-7.4 18c-1.1 1.2-.8 3-.8 3l1.8 3.5c7.8-5.6 11.8-18.9 13-24 2.4-.4 3.7-2.4 3.7-2.4 1.2-2.4-.4-3.4-1.7-3.8z"/>
  <path fill="#56D7E4" d="M126.9 130s.2 2.3 3 2.4c0 0 3.3 0 3.4-2.3 0 0-5.8 1-6.4-.1zM134.4 128s-2.3 3 .9 4c0 0 2 1 4.6-2.2l-5.5-1.9z"/>
  <path fill="#00A9C9" d="M119.5 146.8c1.4 3.4-4 4.3-4.7 6-1.1 3.3-6.5 1.6-10.3 2.3-4.4.8-4.6 1.4-9.1 1.5l-5.9-.2c-1.3.3.7 2.3 1.8 3 .8.6 1.7 1 2.5 1.4 0 0 .2 3.8 1.6 5 .8.6 1.4 0 2-.8a6 6 0 001.6-4.5c-.2 2.2 2.3 7 4.5 6.8 2-.2 2.5-4.9 2.5-6.4 0-.5 1.6-1.2 5.3-2 3-.7 7.4-3 9-5.9 2.3-4 .4-7.7 1.6-10.4l-1.6.8-.8 3.4z"/>
  <path fill="#591C64" d="M141.5 221c31.4 0 56.9-2.3 56.9-5 0-2.9-25.5-5.2-57-5.2-31.3 0-56.8 2.3-56.8 5.1s25.5 5.1 56.9 5.1z"/>
  <path fill="#C300B6" d="M141.4 217c22.7 0 41.1-1.3 41.1-3 0-1.6-18.4-2.9-41-2.9-22.8 0-41.2 1.3-41.2 3 0 1.6 18.4 3 41.1 3z"/>
  <path fill="#FFA400" d="M98.8 145.3c-.8 0-1.7 0-2.4.4l2.4-.4z"/>
  <path fill="#00A0C9" d="M107.7 143.5s1 6.2-1.7 11.8l-3.7-.2 5.4-11.6z"/>
  <path fill="#C300B6" d="M122 141.6c-1.4 2.7.3 7.6-2.3 11.6-2 2.9-6 4.6-9.6 5.3-4.3.8-4.8.9-4.8 1.4 0 1.5-.3 5.5-2.6 5.7-2.5.2-4.7-3.9-4.5-6-.2 1.3-.2 3.3-1.1 4.4-.6.7-1.4 1.5-2.4.9-1.6-1.2-1-4.3-1-4.3-1-.3-2-.7-3-1.3-1.3-.8-3.3-3.8-1.8-4.1 2.2 0 4.5.2 6.7.1 5.3 0 6.8-1.5 12-2 3.8-.3 6.6-1.5 8.7-3.2 5-4 5.9-10.5 4.7-12.9 0 0 2 2.9 1.5 3.7"/>
  <path fill="#910090" d="M92.3 159.9c-1.6-1 3.3-3.1 1.4-2.8-1.5.2-3.1.6-4.2-.4a2 2 0 01-.5-1.8l13.7-9.8c.4.8 1.1 1.2 1.6 1.9.6.8-.6 6.7-.6 6.7l2.8-.3a41 41 0 00-1.5 4.1c-.7 2.4-1.8 3-4 3.4-.8.2-1.7.3-2.5.3l-.3-.8-.2.8c-2.2 0-4.5-.5-5.7-1.3z"/>
  <path fill="#DC0096" d="M84.7 140c-.8-3.5 2-5.8 5.8-7.3 3.1-1.2 8.2-.8 10.2-.2 3 1 5.3 2.9 6.8 6.2 1.2 2.6.2 6.3-.3 9-.8 4-1.7 6.6-4.3 9.2a12.7 12.7 0 01-7.7 4.2c-2.7.4-6.6-1-10.2-1.5-3.6-.5-7 0-9-2.1-4.6-4.7 6-12 8.5-15.4.3-.5.7-1 .2-2.2z"/>
  <path fill="#B90078" d="M107.6 138.7a10.8 10.8 0 00-6.8-6.2c-2-.6-7.2-1-10.2.2-2.7 1-4.7 2.4-5.6 4.3 1-1.7 2.7-2.9 5.2-3.7 4-1.1 8-.7 10 0 3 .9 5.3 2.8 6.8 6 1.1 2.7.5 6 0 8.8-.4 2.2-.9 4-1.6 5.5.9-1.7 1.3-3.5 1.8-6 .5-2.6 1.6-6.3.4-9z"/>
  <path fill="#FF4DD3" d="M103 155.9c-2.5 2.5-4.2 3-7 3.7-3.1.6-7-1-11.4-1.6-3-.4-6.9.3-8.6-1.5-.6-.6-1-1.3-1.1-2.2a3.6 3.6 0 001 3.2c2 2 5 2 8.5 2.4 3.7.5 6.7 1.6 10.8 1.2 3.3-.3 5.2-1.7 7.8-4.1a13 13 0 003-4.7c.6-1.5 1-3 1.2-4.6 0 0-1.2 5-4.2 8.2z"/>
  <path fill="#321C45" d="M86.6 149c-.4.9-1.1 1.4-1.6 1.2-.5-.3-.5-1.1-.1-2 .4-.8 1.1-1.3 1.6-1 .4.2.5 1 0 1.9zm7.2-1.2c-.4-.2-1.1.3-1.6 1.1-.4.9-.3 1.7.2 2 .4.2 1.1-.3 1.5-1.1.5-.9.4-1.7 0-2z"/>
  <path fill="#B90078" d="M86.5 147.1c-.5-.2-1.2.3-1.6 1.1-.2.3-.2.6-.3 1l.1-.3c.4-.8 1.1-1.3 1.6-1 .3 0 .4.5.4 1 .3-.8.2-1.6-.2-1.8zM92 149.6c.4-.8 1.2-1.3 1.6-1 .3.1.5.5.4 1 .4-.8.3-1.6-.2-1.8-.4-.2-1.1.3-1.5 1.1-.2.3-.3.6-.3 1v-.3z"/>
  <path fill="#FF4DD3" d="M84.8 141.6s1.7-2.1 2.4-4c0 0-1.6-1.3-2.5.3a6 6 0 000 3.7z"/>
  <path fill="#FFFFC3" d="M86 134.3a2.2 2.2 0 100-4.5 2.2 2.2 0 000 4.5z"/>
  <path class="text-color" d="M86.5 133.3a1.3 1.3 0 100-2.7 1.3 1.3 0 000 2.7zM105.5 132.3a1.2 1.2 0 100-2.4 1.2 1.2 0 000 2.4z"/>
  <path fill="#56D7E4" d="M116.2 201c-2-1.2-3.6-2.2-5-3.7-1-1.1-2-2.3-2.8-3.5-.5-.7-1-1.9-1.8-2.6-.9-.8-1.7-.8-2 0-.2.4 0 3 1.7 4.1-.6-.6-1.2-1-2-1.4-.7-.4-1.4-.2-1.6.1-1 1 .2 3 .8 3.3-.3-.3-1-.8-1.7-.5-.2 0-.5.3-.4.5 1.5 2.3 4.4 3.8 6.5 4.6a29 29 0 006.8 2c1 .1 3 .5 4.1-.5.4-.8-1.4-1.8-2.6-2.4z"/>
  <path fill="#C300B6" d="M124.6 137c-.9 1.5.9 4.8.7 6.5-.3 3.6-1.2 5.4-3 7.7a17 17 0 01-6 5c.1-1.4.5-2.8 1-4.2l1.8-3c1.1-2.5 1.9-5.3 2.2-8l3.3-4z"/>
  <path fill="#FFFFC3" d="M104.7 133.5a2.4 2.4 0 100-4.8 2.4 2.4 0 000 4.8z"/>
  <path class="text-color" d="M105.3 132.3a1.3 1.3 0 100-2.7 1.3 1.3 0 000 2.7z"/>
  <path fill="#FF008E" d="M140.6 215.3c17 0 30.8-.8 30.8-1.8s-13.8-1.8-30.8-1.8-30.9.8-30.9 1.8 13.8 1.8 30.9 1.8z"/>
  <path fill="#fff" d="M139 109.9c-.6-.8-1-1.7-1-2.7 0 1-.5 2-1.1 2.7a3 3 0 01-2 .8c3 .5 2.8 3 3 5 .3-1.9 0-4.5 3-5a3 3 0 01-1.8-.8zM145.6 106c-.4-.5-.6-1-.6-1.6 0 .6-.3 1.2-.7 1.6-.3.3-.6.4-1 .4 1.4.4 1.5.8 1.7 2 .1-1.1.4-1.5 1.7-2-.4 0-.8-.1-1-.4z"/>
  <path fill="#A974A9" d="M142 109.6a.8.8 0 100-1.6.8.8 0 000 1.6z"/>
  <path fill="#D539A9" d="M131.3 110.7a.6.6 0 100-1.1.6.6 0 000 1.1z"/>
  <path fill="#54396D" d="M134.6 106.3a.6.6 0 100-1.1.6.6 0 000 1.1z"/>
  <path fill="#D539A9" d="M145.1 119.8a.7.7 0 100-1.4.7.7 0 000 1.4z"/>
  <path fill="#54396D" d="M149.1 112.8a.6.6 0 100-1.3.6.6 0 000 1.3zM151 111.6a.6.6 0 100-1.3.6.6 0 000 1.3zM151.3 103.7a.6.6 0 100-1.2.6.6 0 000 1.2z"/>
  <path fill="#D539A9" d="M136.1 116.3a.6.6 0 100-1.3.6.6 0 000 1.3z"/>
  <path fill="#54396D" d="M133.5 118.6a.6.6 0 100-1.2.6.6 0 000 1.2zM141.7 114.9a.6.6 0 100-1.3.6.6 0 000 1.3zM157.4 104.8a.6.6 0 100-1.2.6.6 0 000 1.2zM166.6 102.2a.6.6 0 100-1.2.6.6 0 000 1.2zM139.5 113.5a.6.6 0 100-1.2.6.6 0 000 1.2z"/>
  <path fill="#D539A9" d="M148.9 107.6a.6.6 0 100-1.2.6.6 0 000 1.2z"/>
  <path fill="#54A9BA" d="M130.7 116.2a.6.6 0 100-1.1.6.6 0 000 1zM130.8 117.6a.3.3 0 100-.7.3.3 0 000 .7zM144.1 112.1a.3.3 0 100-.6.3.3 0 000 .6zM133.3 112.6a.6.6 0 100-1.1.6.6 0 000 1z"/>
  <path fill="#54396D" d="M127.2 114.5a.5.5 0 100-1 .5.5 0 000 1z"/>
  <path fill="#54A9BA" d="M136 119.4a.6.6 0 100-1.1.6.6 0 000 1z"/>
  <path fill="#fff" d="M131.3 111c-.2-.1-.3-.3-.4-.6 0-.3-.3-.3-.4 0 0 .3-.2.5-.4.7l-.6.4a.2.2 0 000 .2v.1a1.3 1.3 0 011 .9c.1.2.3.2.4 0 .2-.4.3-.7 1-1h.1v-.1a.2.2 0 000-.2 2 2 0 01-.7-.3zM128.9 117l-.2-.4c-.1-.2-.2-.2-.3 0 0 .1 0 .3-.2.4l-.4.3a.1.1 0 000 .1.8.8 0 01.7.6c0 .2.1.2.1 0 .2-.2.2-.4.7-.6v-.1l-.4-.3zM141 115.3l-.2-.5c-.1-.1-.2 0-.2 0 0 .2-.2.4-.3.5l-.4.2a.1.1 0 000 .2.8.8 0 01.7.6c0 .2.1.2.2 0 0-.3.2-.4.6-.6a.1.1 0 000-.2l-.4-.2zM133.6 115a1 1 0 01-.2-.3c-.1-.2-.2-.2-.3 0l-.2.4-.4.2v.1a.1.1 0 000 .1.8.8 0 01.6.6c0 .1.2.1.2 0 .1-.3.2-.4.7-.6v-.1-.1l-.4-.2z"/>
  <defs>
    <linearGradient id="paint0_linear" x1="116" x2="119.7" y1="204.1" y2="183.2" gradientUnits="userSpaceOnUse">
      <stop offset=".1" stop-color="#44CEEC"/>
      <stop offset=".8" stop-color="#0097B3"/>
    </linearGradient>
    <linearGradient id="paint1_linear" x1="86.1" x2="85.2" y1="174" y2="160.6" gradientUnits="userSpaceOnUse">
      <stop offset=".1" stop-color="#44CEEC"/>
      <stop offset=".8" stop-color="#0095B3"/>
    </linearGradient>
    <linearGradient id="paint2_linear" x1="338.1" x2="338.1" y1="714.3" y2="663.3" gradientUnits="userSpaceOnUse">
      <stop offset=".1" stop-color="#44CEEC"/>
      <stop offset=".8" stop-color="#0095B3"/>
    </linearGradient>
    <linearGradient id="paint3_linear" x1="148.8" x2="158.2" y1="166.4" y2="186.8" gradientUnits="userSpaceOnUse">
      <stop offset=".2" stop-color="#007C99"/>
      <stop offset=".6" stop-color="#0090AE"/>
      <stop offset=".9" stop-color="#009AB8"/>
    </linearGradient>
    <linearGradient id="paint4_linear" x1="-285.4" x2="9802.4" y1="16203.4" y2="13203.9" gradientUnits="userSpaceOnUse">
      <stop offset=".1" stop-color="#44CEEC"/>
      <stop offset=".8" stop-color="#0095B3"/>
    </linearGradient>
    <linearGradient id="paint5_linear" x1="-2412.9" x2="-2216.2" y1="5630.9" y2="4814.5" gradientUnits="userSpaceOnUse">
      <stop offset=".1" stop-color="#44CEEC"/>
      <stop offset=".8" stop-color="#0097B3"/>
    </linearGradient>
    <linearGradient id="paint6_linear" x1="132.6" x2="129.5" y1="118.9" y2="156.8" gradientUnits="userSpaceOnUse">
      <stop offset=".1" stop-color="#44CEEC"/>
      <stop offset=".8" stop-color="#00A8C5"/>
    </linearGradient>
    <clipPath id="clip0">
      <path fill="#fff" d="M0 0h82v82H0z" transform="translate(176 85)"/>
    </clipPath>
  </defs>
</svg>